<svg width="497" height="337" viewBox="0 0 497 337" xmlns="http://www.w3.org/2000/svg"><title>Combined Shape</title><path d="M324.226 268.778c2.3.96 2.04 3.66 1.61 5.37-.56 2.26-2.28 3.5-3.69 5.19-.73.88-1.6 1.99-1.85 3.16-.13.66.72 3.33-.21 1.86.53 1.32-1.6 2.48-1.56 3.81 4.02-.5-.86 2.03.25 3.32.16-.61.63-1.06 1.32-1.06-.89 1.58-.92 3.53-1.53 5.23-.5 1.39-1.67 4.13-1.5 5.7-2.24-2.1-1.02-3.7-1.81-5.99-1.14.87-1.06.9-1.54 2.09-.38.96-1.22.92-2 1.39-1.67 1-2.54 3.84-3.21 5.58-.66-.61-2.61-1.76-2.86-.3-.19 1.13-.3.87-1.91.87h-10.59c-.8 0-3.14-.53-3.12.67.01.99.2 2.02.24 3.01.11 2.64-1.95 1.82-4.06 1.82 1.67 1.49 2.87 3.35 4.95 4.29 1.82.82 1.79 2.88 3.53 3.74.59.29.34 3.1-.13 3.46-.73.57-3.9 0-4.8 0-1.69 0-4.17-.45-5.66.28-1.45.71-2.73 2.59-3.12 4.06-.35 1.3-1.69 3.17-.46 4.79.48.64-.66 4.97-1.19 5.68-.89-.98-1.87-1.87-2.76-2.85-.52-.57-3.16-4.56-1.42-2.41-.46-1.18-1.98-1.65-2.88-2.43-1.33-1.14-2.33-2.55-3.74-3.68-2.81-2.25-4.44-4.35-7.99-5.46-.04 1.27 3.24 1.85 3.99 2.75-2.12-1.02-4.3-2.01-6.58-1.94.57-.23.99-.71 1.13-1.3-.68-.09-1.2.12-1.54.65-.12-1.97-1.9-1.35-1.96.08.6-.06 1.19.05 1.77.32-3.02.21-4.24 2.02-6.9 2.84-2.39.75-4.3 1.87-6.77 2.36-1.87.37-2.72.14-4.75-.87-2.25-1.11-3.59-1.27-5.97-1.63-1.24-.19-2.06-.81-3.07-1.59-1.28-.99-2.42-1.2-3.87-1.7-1.17-.4-1.55-1.34-2.49-2.04-1.14-.86-2.96-1.03-4.26-1.34-1.29-.32-2.73-.44-3.96-1-1.3-.58-2.35-1.57-3.69-2.12-3.11-1.27-6.16-1.99-9.03-3.95-2.36-1.62-3.87-3.88-6.06-5.59-.86-.67-1.77-.4-2.61-.23-1.27.25-3.65-.67-4.96-1.1-2.18-.72-5.17-1.69-6.82-3.49-.81-.9-1.44-1.89-2.16-2.84-1.23-1.62-2.6-1.68-4.2-2.65-.57-1.5-4.53-2.27-6.08-3.45-.82-.62-.78-1.62-1.59-2.29-.91-.75-1.94-2.5-2.57-3.49-.73-1.16-2.32-4.36-1-5.25.92-.63 2.18-.29 2.89-1.25.66-.9-1.33-1.65-1.98-1.51.16-1.21 3.82-5.26 2.32-6.76-1.38-1.39-1.95-2.19-2.85-3.89-.97-1.83-.43-3.24-.97-5.06-1.14-3.92-5.56-7.2-8.04-10.62-2.86-3.95-5.68-6.87-9.84-9.68 1.06.42 2.1 1.6 2.26.09-1.53.17-4.51-1.27-4.23-2.95.21-1.21-.37-4.69-2.45-3.77-.29-1.43-.29-.35-1.43-.88-.78-.37-1.5-.98-2.32-1.23 1.05.2 1.13.13.21-.2-.55-.5-.59-1.23-1.19-1.74-.42.45-.94.77-1.55.97-.45-1.02.8-1.11.75-2.02-1.03 1.13-1.82.44-3.48.08.27-.18.54-.37.8-.57-.86-.6-1.19-.43-.98.49-.28-1.17-.46-2.33-.21-3.38.1-.39.84-3.04 1.08-1.56.13-.62.53-1.8 1.34-.81-.09-.84-.43-1.56-1.27-.89.12-1.04-.44-2.38-1.72-3.01-1.01-.5-1.64.39-2.82-.41-1.27-.88-.89-3.57-2.23-3.89-.92-.22-3.79-.52-4.22-1.7-.46-1.25-1.84-5.47-.2-5.47-.83-.09-2.8-.37-2.74-1.05-.27.3-.4.68-.41 1.13-.41-1.2-2.14-1.26-3.02-2.05-.75-.67-1.27-1.81-1.84-2.6-.58-.8-1.55-.84-2.23-1.5-1.05-1.02-1.42-2.88-2.48-3.74-1.86-1.48-1.23-2.9-2.23-4.6-1.13 1.11-1.61-1.97-2.01-2.67-1.33-2.3-1.75-3.61-2.31-5.92-.45-1.88-2.38-3.59-2.5-5.47-.06-.88.73-3.07.17-3.74-.93-1.09-2.81-1.08-3.93-1.41-1.83-.54-.57-2.6-3.17-2.77-.89-.06-.85.9-1.85.83-.96-.07-2-.77-2.82-1.4-1.74-1.32-3.49-1.73-5.29-3.1.52 1.03 2.13 1.98 2.11 3.04-.01 1.31-.41 2.74-.56 4.04-.15 1.3 1.38 2.59 1.53 3.93.16 1.47.52 3 .39 4.4-.34 3.42 1.66 4.77 4.7 7.29 2.75 2.28 3.8 3.9 4.57 6.84 1.11-1.05 2.57 1.44 3.06 2.34.25.47.5 1.42 1.01 1.77.42.29 1.81.58 1.71 1.22-.24 1.48.6 5.52 2.34 6.76 2.35 1.67 3.06 4.65 5.62 5.87-.98.91 1 3.82 1.49 5.1.63-.71-.41-2.44-.86-3.32 4.47.7 4.97 13.91 7.68 13.28.06 1.34.26 2.89.95 4.2.73 1.39 2.01 2.14 1.26 3.61-.96 1.88.66 5.39 3.35 5.22.06-.03.12-.07.14-.12.22-.44.14-1.01.41-1.42.66 1.05 2.71 2.52 3.73 3.23.57.39.95 2.81 1.39 3.48 1.01 1.53 3.49 2.61 1.83 4.47-.66.74-3.18 3.04-4.37 2.57-1.56-.63-1.44-3.77-2.28-4.97-.62-.88-1.54-1.53-2.41-2.15-1.41-1-2.35-2.46-3.63-3.6-1.86-1.66-4.39-2.39-6.06-4.32-1.39-1.61-4.16-2.56-4.02-4.86-.04.55-.12 1.09-.24 1.61-.74-4.67 2.6-7.64-1.08-12.48-1.5-1.87-3.66-2.11-5.42-3.84-.81-.79-2.05-2.02-2.4-3.02-.25-.71.57-.88.06-1.7-.33.62-.01 1.84-.74 2.19-.74.35-1.68-.38-2.36.24-.56.5-1.33-.58-1.67-1.03-.81-1.09-1.76-1.28-2.85-1.96-.28-.34-.58-.64-.93-.92-.52-.11-1.05-.24-1.57-.38-1.09-.63-.77-.97-1.21-1.81-1.02-2-4.31-2.34-5.16-4.58 2.06.19 4.92 1.23 6.2-.24.59 2.1 4.28 1.54 3.85 3.72.78-.77.47-3.42-.92-4.29.16.5.35 2.52-.82 2.04-.68-.29-.38-1.94-.46-2.36-.25.18-.5.37-.74.56.33-2.07 2.82-4.05.76-6.63-2.15-2.68-4.73-6.16-7.84-7.96-2.56-1.48-4.62-2.67-5.95-5.25-.5-.97-.03-1.67-.1-2.59-.11-1.21-1.48-1.73-1.11-2.41-.19.24-.4.45-.64.65-1.24-2.17.78-3.13-1.76-5.15-1.18-.92-.4-1.63-.81-2.62-.55-1.33-2.03-2.2-2.74-3.43-.53-.91-.31-1.66.1-2.23.35-.5-.74-1.3-1.18-1.8-.4-.32-.78-.67-1.13-1.04-.1-.53-.21-1.07-.33-1.61-.26-.44-.61-.81-.94-1.16 1.44-.13 2.86-.29 4.29-.44 4.07-.43 8.26-.88 12.5-1.12l.02 1.3 1.28.48c5.71 2.12 11.78 4.35 17.79 6.38 1.42.48 2.85.93 4.24 1.36 1.69.53 3.45 1.08 5.15 1.68.59.2 1.2.45 1.85.72 1.84.74 3.74 1.52 5.68 1.6.93.04 1.88.06 2.93.06 1.92 0 3.83-.07 5.69-.13 1.81-.07 3.68-.14 5.51-.14.42 0 1.12.07 1.86.14 1.06.11 2.26.23 3.41.23 4.2 0 5.24-1.85 5.38-3.39.02-.28.04-.54.05-.79.02-.19.03-.42.05-.61h.18c.1 0 .21 0 .33.01.98.05 2.03.08 3.3.08.76 0 1.51-.01 2.26-.02.73-.01 1.47-.02 2.2-.02.31 0 .67-.02 1.06-.04s.79-.05 1.18-.05c1.54 0 1.78.4 1.89.57.94 1.52 1.93 2.07 2.73 2.5.44.24.75.42 1.11.78.39.38.8.81 1.22 1.26 1.43 1.51 3.04 3.22 4.81 4.21.22.12.44.24.67.36 1.01.54 1.63.9 1.71 1.33.18.89.56 1.63.9 2.29.11.22.23.44.33.67.08.18.09.34.11.77.01.4.03.91.17 1.49.19.77 1.27 4.61 4.31 5.64.18.1.56.45.8.66.45.42.93.85 1.47 1.16.61.34 1.21.64 1.8.93.49.24.95.47 1.41.72.19.11.42.24.66.39 1.14.7 2.56 1.56 4.01 1.56.61 0 1.16-.15 1.66-.44 1.91-1.15 2.55-3.08 3.06-4.63.34-1.03.63-1.92 1.15-2.28.82-.55 1.96-.82 3.49-.82.82 0 1.75.08 2.92.24l.19.02c.92.12 1.5.21 1.87.27.54.71 1.25 1.2 1.81 1.58.31.21.76.53.85.68.34.86 1.04 1.41 1.6 1.85.19.15.48.38.55.48.25.43.55.79.81 1.12.21.24.4.48.5.67.32.6.54 1.26.78 1.96s.48 1.42.84 2.17c.72 1.5 1.55 3.08 3.11 4.56.54.5.91 1.14 1.35 1.87.38.64.81 1.37 1.4 2.06.49.59 1.11.97 1.61 1.28.17.11.41.26.55.36.01.13.01.3.01.48-.01.36-.01.81.08 1.31.27 1.44.83 2.64 1.37 3.8.19.41.39.84.58 1.28.09.23.19.46.28.68.86 2.13 1.83 4.55 5.46 5.04.61.08 1.64.77 2.47 1.32.57.38 1.11.74 1.65 1.02 1.06.55 2.14.62 2.86.62.36 0 .72-.02 1.06-.04.23-.02.44-.03.65-.03.19.08.61.39.86.58.76.56 1.69 1.25 2.89 1.25.14 0 .28-.01.41-.03.24-.03.83-.18 1.47-.47-1.11 3.4-2.94 6.49-3.71 10.07-.2.93-.58 8.84-1.82 8.66 1.55 1.84.4 4.48.56 6.4.15 2.38-1.07 4.3-.79 6.75.3 2.51.96 4.77 2.83 6.86 2.01 2.24 1.25 2.14.7 4.43-.26-.9.68-2.17-.02-2.92-1.31-1.42-1.83-3.07-2.9-4.6.61 1.41.26 2.91 1.05 4.29.71 1.24 1.37 1.37 1.72 2.88.73 3.15 2.57 6.42 4.62 9.06 2.36 3.04 3.42 5.49 4.79 8.87.57 1.41 1.81 2.46 2.51 3.82.6 1.16.92 2.23 2.3 2.8-.7-.06-1.32-.87-1.71-.41.71.18.84.67.74 1.21.07-.06.16-.1.29-.12.43.03.67-.17.69-.6.84.42 1.75.48 2.62.51 2.8.12 5.35 1.53 7.02 3.88 1.41 1.99 2.53 1.83 4.72 1.27 1.32-.34 3.58-.79 4.55-1.82 2.91-.78 7.49-1.59 7.83-.69-.88-2.26 5.71-3.48 6.88-1.69-1.85-.32.21 1.22.08 2.02.53-.51 1.06-.27 1.76-.33.44.1.89.15 1.34.17.06-.32.16-.62.31-.9.95-.39 2.91-2.57.34-2.74.49-.46 1-.89 1.53-1.3-.74.48-1.45.99-2.25 1.38.74-1.67 2.9-2.3 4.36-3.22 2.04-1.29 1.72-3.17 2.41-5.23.36-1.07 1.25-1.58 1.82-2.48.59-.91.21-2.16.16-3.23-.11-2.57.97-4.42 1.23-6.8-.14.32-.31.62-.53.89.76-3.62 5.91-4.32 9.19-4.69 2.36-.27 4.19-.9 6.33-1.72 2.8-1.07 5.51.15 8.5.42-.53-.2-1.07-.31-1.62-.32 1.15-.3 2.4.3 3.57.68-1.15-.5 1.83-1.56 3.23-.97zM9.293 99.312c-.988-2.799.101-5.32-1.453-8.17-.603-1.106-4.089-3.547-4.13-4.34-.113-2.222-.003-4.21 1.92-5.212-.245-.949.084-1.672-.333-2.589-.69-1.519.66-2.53.444-3.934-.167-1.09-1.78-2.666-1.588-3.488.324-1.37-.699-1.762-1.445-3.308-.528-1.096-.178-1.954-.063-2.817.142-1.064-.73-2.037-.935-3.137-.247-1.24.128-2.32.51-3.276.157-.394.996-2.66 1.277-1.322-.132-.633.363-.592.872-.742-.427-1.424-.524-3.242 1.206-3.303-1.665.438-.808-1.042-.732-1.642.114-.878.321-1.712.515-2.552.293-1.271-.043-2.85.592-3.955.927-1.61.974-4.34.873-6.428-.034-.766-.418-2.7 1.042-2.498-1.424-1.261-1.038-2.934-.82-3.772.28-1.078-.648-2.79 1.114-2.874 1.321-.064 4.825.998 5.293.172-.514.28-2.023-.46-2.805-.726-1.504-.51-1.885-.213-2.906-.055-1.538.24-1.635-2.58-1.686-3.024.185.578.337 1.145.453 1.701 1.327-.294-.378-3.419 2.014-2.67-.913-.441-1.703-.604-2.37-.486-1.095-1.86.712-1.836 2.052-2.266-.726.044-1.677-.302-2.525-.81a2.499 2.499 0 0 0-.126.81c-1.17-2.64-1.166-5.329-3.707-8.158-1.21-1.349-2.865-5.61-1.022-5.255 2.937.566 5.7 1.794 8.632 2.188 1.766.237 5.507-.113 6.643 1.27-.33-.632-.13-1.087.49-1.213.087.625 1.036 1.427 1.352 2.093.382.803-1.009 1.713-1.367 2.196-1.773.9-2.176 1.818-2.686 2.67 1.472.698 1.986.07 2.487-.325a6.76 6.76 0 0 0-1.37.567c-1-1.224.071-1.944.852-2.318 1.346-.639 1.713-1.713 2.66-2.617 1.562 1.267-1.353 2.123-.757 3.479 1.096-.866 1.778 2.196.351 2.347.055-.27.111-.54.164-.81-1.088.128-.9 1.153-1.048 1.861-.624-.68-.659-1.269-.312-1.618-1.038.413-.934 1.657-2.235 1.86.854-.121 1.208.014 1.515.973-.36-.889.141-1.333 1.523-.855.872.302 1.255-.809 1.484-1.072.85-.972 2.664-1.56 1.146-3.738-1.11-1.591 1.91-2.538.524-3.746-1.165-1.015-.553-1.845-1.865-2.972-.987-.848-1.345.228-1.81-1.213 2.948.975 1.39-1.37 1.708-2.347-1.265.18-2.298-1.436-2.167-2.018.24-1.052 4.47-.41 5.945-.41H253.12c1.411 0 .86-1.364.773-2.366-.073-.844 1.364-1.735 2.613-.273 1.45 1.696.1 4.904 3.234 5.458.932.167 4.993.146 5.697 1.268.768 1.224 3.968-.337 4.565-.604 1.31-.588 3.963.657 5.743.968-.06.655.604 1.088 1.447 1.133-.145.345.765 1.804 1.396 1.5.27-.128-.222-.846.21-.85 1.045-.015 2.024.579 3.12 1.078.885.402 1.383.128 1.73.817.227.45.763.623 1.223.66 2.671.21 3.86-1.484 6.29-1.507-.016 1.566 2.953 1.247 3.783 1.187.785-.056 1.701-.197 2.69.275 1.951.928 2.6.37 4.352.724-4.433 1.458-9.152 2.883-12.645 5.203-1.447.963-2.512 2.22-3.917 3.213-1.607 1.11-3.815 1.768-4.996 3.236 3.15 2.405 9.062-1.541 11.28-1.7.355 1.118-.278 2.44-1.055 2.995.698.159 1.414-.55 1.965-.264.971.507.867.64 1.956.64 1.893 0 3.2-1.058 4.517-1.709 1.563-.768 3.95-.291 5.392-1.108 1.908-1.076 3.918-1.91 5.506-3.223.098.808 1.114 1.36 1.697 2.104.606.782-.05 1.401.15 2.104.27-.34 2.922-2.569 1.654-.647 1.503-1.64 4.163-.21 6.456 1.76 2.151 1.85 3.042 1.128 5.313 1.762 3.142.878 4.486-1.314 6.673-1.866 1.31-.33 2.965-.043 4.42-.145 1.826-.127 3.446-.552 5.202-.784-.129.875-.293 1.738 0 2.752 1.98.369 3.524.21 5.087.006 1.41-.183 2.338 2.428 1.244 2.666 1.213.07 1.971 1.253 2.981 1.858-.964 1.457-5.05-.838-6.5.194-.056.04-.639 1.255-.597 1.252-1.146.064-1.972-1.44-3.229-1.81-3.715-1.087-4.535.943-7.673.801-3.325-.15-3.247 2.518-5.738 3.206-.05-.98.762-1.508 1.13-2.267-1.789.282-2.03 1.358-3.57 1.78-.22-.623-.257-1.192-.109-1.7-2.579 1.04-3.318 4.554-4.888 6.4-.399.47-.23 1.233-.64 1.693-.469.512-1.53.467-2.04.985-.778.788-1.768 2.092-1.339 3.465 2.028-.398 2.567-3.77 5.477-2.883 1.058.323-.74 2.782-.896 3.116-.51 1.1-.318 2.587-.99 3.585-1.362 2.029-1.13 4.485-2.297 6.633a6.008 6.008 0 0 0-.597 3.955c.26 1.35 1.24 2.748.778 3.917-.75 1.906.44 6.218 2.416 8.592 1.643 1.975 4.202.773 5.281.23 2.493-1.248 3.835-3.383 4.891-5.71.573-1.255 1.013-2.567 1.07-4.069.044-1.276-1.434-4.301-.335-4.983-2.932-1.259-2.106-3.59-1.699-4.947.264-.874-.347-1.79-.308-2.706.041-.955 1.348-1.683 1.748-2.492.454-.917.337-1.816.351-2.908.014-.98.995-1.058 1.54-1.662.684-.758.533-1.233 1.798-1.505 1.49-.32 1.457-1.863 2.701-2.395-.377 1.097.101 2.596-.602 3.56.552-.297.917-.729 1.091-1.294.206.68.045 1.285-.355 1.7 1.552-.712 1.508-2.394 1.54-3.931.04-1.91 2.767-1.162 4.028-2.056-3.147-.428-.458-3.4.717-3.61.712-.127 2.968.827 3.88 1.182 2.153.84 4.12 1.892 6.3 2.58 1.805.572 3.456 2.425 2.378 3.032-1.036.583.306 2.399.552 3.454.298 1.288.17 3.465-1.109 3.893-1.403.47-1.129 1.983-2.347 2.602-1.15.584-2.685 1.261-2.215 2.878.607 2.09 2.924.444 3.48.271 1.152-.357 3.802-5.053 6.253-3.078 1.903 1.536 1.976 5.337 2.543 6.94.74 2.089 1.663 6.994-1.31 7.206.597-.978-1.128-1.52-1.48-.68-.298.716-.126 1.69-.62 2.3-.527.648-1.37 1.023-1.91 1.654-.58.674-.65 1.604-1.262 2.27-.448.492-2.84 2.325-.718 2.927.76.216 1.528.34 2.29.593a4.29 4.29 0 0 1 1.003.666c.582.313 1.397.005 2.106.306-.836.178-1.813.163-2.48.566 1.13.48 1.71-.209 2.705-.08.662.085 1.4.371 2.04.39 2.074.056 3.594-.788 5.731-.73 2.064.053 3.162-1.6 4.55-2.367 1.615-.893 3.693-1.38 5.56-1.986 3.886-1.26 7.748-2.74 10.743-4.981 1.271-.95 2.751-1.832 3.897-2.882.666-.61.481-3.093-1.342-3.142.79-1.945 1.78-2.396 4.544-2.752a18.846 18.846 0 0 1 4.927.056c1.336.194 2.867 1.471 4.006 1.181 1.447-.367 2.99-.142 4.54-.313 1.705-.189 2.743-1.23 4.117-1.82 1.046-.449 2.545-.42 2.384-1.809-.163-1.423.431-2.402 1.325-3.283-.602.29-1.683.55-1.268-.648-.667-1.04.11-1.368.726-1.663 1.837-.873 3.026-2.092 4.423-3.386 1.512-1.392 3.387-3.229 5.844-3.653 3.153-.547 7.005-.086 10.43-.145 5.074-.085 10.057-.197 15.266.032 1 .043 3.993.435 4.288-.46.233-.736.38-1.665 1.074-2.122.776-.508 2.162-.23 3.014-.824.277.27.55.54.822.81.925-.428.05-1.419 1.397-1.285-.306-.032 2-3.13 2.278-3.355 1.126-.908 1.84-1.164 1.531-2.767-.242-1.253.718-2.444 1.536-3.107.991-.803.448-2.198.958-3.244.711-1.45 2.242-2.483 3.346-3.669.901-1.008 3.328-5.887 4.776-1.944.776 2.11 5.188-.105 5.814-.274 3.738-1.006 5.162 3.63 5.127 5.64-.03 1.796.133 3.645.195 5.465.033.95-.738 3.661.423 4.66 1.227 1.06 2.4.024 2.32 1.605-.059 1.117-.439 2.267 1.006 3.41.456-.682 1.351-.396 1.974.483.735 1.038-.327 1.334-.114 2.267.945-.75 1.24.108.93.666-.33.602-1.295.791-2.049.934-.919.175-1.697.306-2.365.818-.48.366-2.153 1.863-2.054.01-.73.244-.967 1.133-1.895 1.133-.696 0-.075 1.184-.807 1.377-.197-.502-.7-1.82-1.599-1.615-1.01.233-1.07 1.733-1.865.159-1.335.57-.668 2.116-.562 2.427-1.769-.836-2.019-1.89-2.274-3.238.028.938-1.137 1.063-1.574 1.7-.499.727-.46 1.743-.897 2.508-1.015 1.79-2.964.875-3.787 2.834-.414-.526-.61-.64-.589-1.215-.196.246-.399.49-.604.727-.256-2.073-1.042.194-.952.729-.297-.893-.532-1.792.004-2.428-.454.227-.734.578-.834 1.053.847-.204.522 2.093.173 2.427a21.559 21.559 0 0 0-.6-1.052c-1.58.086-3.382.65-2.972 1.889.12.358-1.223 1.932-1.56 2.167-1.322.928-5.503 5.65-2.027 7.514-.674.46-3.625 1.63-2.992 2.83.298.567 1.82.772 2.364 1.277 1.375 1.28.704 2.843 2.765 4.12 1.735 1.075 3.891.026 3.57-1.51-1.086 0-.57-.98-1.88-1.618 1.852-.075 2.568 2.44 2.34 3.4-.266 1.132-4.65 1.852-6.067 1.698.04-.578.11-1.144.212-1.7-1.5.877-2.955 2.136-4.939 2.266.042-.847-.12-1.802.441-2.427-.715.401-1.259 1.477-2.044 0-.873 1.837-.277 3.521-3.026 3.944-.54.083-5.035.78-5.362-.222.391 1.063-1.36 1.067-2.158 1.058-1.74-.02-2.636.002-4.04.61-2.802 1.21-5.602 2.216-7.62 4.158.718-1.582 1.37-3.106.16-5.26-.398 1.78 1.801 5.153-.823 5.972-2.049.639-1.612 2.287.954 2.526.342 2.108-.492 3.956-1.02 5.745.09-.54.182-1.078.274-1.618-1.958-.041-.61 4.904-2.873 4.73-.723-.056-1.488 2.606-1.773 3.066-.64 1.03-1.536 2.398-3.134 2.48.02-.511.95-1.791-.067-2.31-1.693-.862-2.638-.913-4.158-2.375-2.736-2.623 1.472-3.477 2.456-4.62-1.835.837-5.1 2.108-2.95 4.923 1.241 1.63 1.207 3.258 2.605 4.972 1.121 1.376 1.181 2.388.382 2.89 1.4.248 1.218 1.391.938 2.023-.339.874-1.23 1.329-1.616 1.77-1.039 1.196-1.587 2.5-2.31 3.895-.646 1.248-1.806 2.175-2.422 3.406-.363.725-.4 2.695-1.635 2.665-1.004-1.817.17-3.718.945-4.951.391-.62 1.268-2.68 1.97-2.819-.797-.263-1.44-.181-1.928.243-.017-.781 1.727-2.349-.493-2.347a3.89 3.89 0 0 0 .413-1.7c-.44 1.346-1.662-.648-1.257 1.213-.298-.436-1.868-1.218-1.899-1.665-.058-.796 1.067-1.206-.018-2.136.62.008 1.252.144 1.9.404-.43-.674-1.83-2.077-2.604-1.538-.017-1.138.95-.378 1.573-.832 1.048-.766-1.263-1.28-1.814-.704-.079-1.33 2.071-.842 1.804-2.347-.193.23-.4.445-.625.647-1.589-2.205 1.682-2.81 3.226-2.995a26.262 26.262 0 0 1-1.123-.647c.563-.298.953-.73 1.173-1.294-.469.344-.957.669-1.467.972.171-.286.322-.584.451-.892-.952-.102-1.204.383-1.4 1.023-1.256.444-1.439.874-1.44 1.405-.938-1.54-1.86.247-1.462.972-.755.21-.26.748.37 1.213-1.063.102-.865.266.088.89-3.045-1.428.416 5.77.051 6.475-1.607-.809-2.303-2.002-2.325-3.319.007 1.076.072 2.03 1.311 3.007.937.758 2.192 1.894 1.358 2.74-.743-1.258-3.906-1.278-3.869-2.752-.482-.078-.492.191-.053.81-.71-.316-1.39-.837-1.847-1.456-.974 1.178-2.227-.34-1.418-1.407.62-.816 2.464-1.622 1.137-3.124.658 1.541-3.119 4.38-1.735 5.243.823.525 1.615-.155 2.415.656 1.294 1.362 1.436.98 3.116 1.362.687.157 1.532 1.44 2.226 1.87 1.16.713 1.143 1.108.58 1.972-1.482 2.282-3.979-1.203-5.317-2.85.402 1.513 2.431 3.788 4.067 4.528 2.01.911 2.072 2.274-.165 1.947.221.293.434.59.636.89-1.099.726-2.32-1.007-3.235-1.7 1.413 1.536 5.622 3.834 2.777 4.854-2.01-2.903-3.962-2.674-7.069-3.64.472.548 2.396.675 3.27 1.154 1.204.662 3.787 2.29 3.012 3.538.37-.544 1.084-.492 1.757.082-.559-1.306 1.027-.873 1.898-.659 1.098.272 1.106 1.025 1.396 1.933.383 1.205.634 2.376.906 3.575.348 1.54 1.833 3.199 1.798 4.699-.5-1.304-.989-2.656-1.787-3.918-.773-1.225-.14-2.492-1.484-3.609-.144 2.072 1.517 3.714 1.172 5.26-.12-.633-.473-1.2-1.063-1.698-.066.871-.717.974-1.568.242.261.285.501.584.718.89-.545.401-1.176.32-1.89-.242-1.11.337-.794.605-.49.89-.783.203-1.215 1.096-2.319.566-1.173-.561-1.13-1.831-.813-2.508-.34.37-.677 2.991.216 3.427.792.388 1.426-.499 2.174-.268.608.188 3.014-.677 3.265.474.167.787.056 1.922-.322 2.517.698-.24.81-.843.792-1.525-.023-.898 1.112-.642 1.526-1.227 1.044 1.256.084 2.142.268 3.319-1.464-.82-1.69 1.061-2.124 1.69-.803 1.165-3.194.5-4.642-.233.09-.286.205-.555.345-.811-.629.15-.943.606-.535 1.294-1.295-.523-2.62-.386-3.889-1.132.824.62 5.557 2.178 3.98 2.83-.603.25.088 1.063-.405 1.474-1.09.912-1.868.817-3.544-.177.468 1.123 1.407 1.526 2.475 1.398.724-.088 2.81-1.06 2.775-.023.81.23.301 1.138-.37 1.537-.38.226-3.037.035-2.196.648-1.424-.21-3.353-.405-4.093.445-.503.582-1.623 1.578-1.722-.121-.32.365-.078 1.032-.07 1.514.004.518-1.103.727-1.475.959-1.622 1.006-2.156 2.756-2.714 4.487a5.035 5.035 0 0 0-.354-1.618c.256 3.137-3.155 2.13-5.607 2.894-2.78.871-3.874 3.475-5.06 5.763-.628-.584-.614-1.222-.126-1.618-.855.538.441 2.291-.639 2.51-.583.117-.21.516-.506.856-.525.605-.91-.017-1.443.357-.567.397-2.603 3.992-3.655 1.78.91 1.825-.619 2.075-1.735 2.732-.698.412-1.24.815-2.26.643-3.137.839 1.202.536-1.193 1.56 2-.19-.94 1.428-1.163-.484.418 2.186-1.032-.326-1.258-.81.237.722.711 1.407.94 2.127-1.407 2.55-1.355 3.255-3.56 3.942.195.268.387.54.58.81-.444.32-.994.373-1.648.162.058.303.174.599.35.89.922.677.027 1.099-.958 1.055 1.216.552 1.145 2.044.13 1.292.672 1.33-.227.803-1.355.566a4.17 4.17 0 0 1 1.861 1.134c-.572.737-1.573.647-1.664 1.776-.07.805-.96 2.837-.084 3.64.367.281.406.536.113.758-.704.536-.078.718.276 1.602.686 1.726.711 3.744 1.11 5.494.855 3.77 2.735 7.575 4.886 11.1 1.058 1.733 1.025 2.112.895 3.757-.133 1.623.775 3.111 1.315 4.726-1.073-1.668-1.785-3.448-1.44-5.153.39-1.952-1.518-1.498-1.974-3.1.69 2.963 1.742 5.788 3.214 8.64.8 1.55 2.65 4.725 1.783 6.168 2.654-.37 1.795 10.88 1.513 12.107-.503 2.005-1.16 6.212-3.002 7.315-1.725.774-2.767-.04-3.529.244-1.272.475-3.398-.149-2.19-1.702a2.834 2.834 0 0 0 1.603 1.214c.212-.883-1.48-1.782-1.95-2.445-1.034-1.457-.69-3.046-2.664-4.065-1.174-.602-2.257-.688-2.699-2.069-.436-1.36.006-3.27-1.862-4.046.92-.327 1.19-1.317 1.905-1.86-.807.254-1.105 1.248-1.893 1.56-.66.26-.798-3.572-.448-4.067-.49.379-1.053.352-1.69-.082-2.265-1.482-2.175-4.038-4.02-5.017 1.287-.084 3.153-3.019 2.094-4.288-.793-.133-1.38-.688-2.07-.971-.27.576-.178 1.05.545 1.472.64.373-.274 1.585-.44 1.846-2.426-3.306.218-6.444.285-9.498.024-1.087-.215-2.063-.702-3.165-.83-1.873-1.458-1.276-2.933-2.382-2.144-1.608-3.289-3.943-4.77-5.954-.72-.975-2.077-2.043-3.248-2.387-1.708-.502-2.369 1.046-3.918.89.56 1.239-.69.946-1.6 1.579-.355.245-1.94 1.425-1.977.363-.983.86-2.48 1.133-3.938 1.133.612-1.094-.458-2.528-1.76-3.076.578.073.421-.224-.47-.888-1.439-.49-.507-1.63.39-1.863-.809.032-1.616.067-2.428.081.294.268.584.538.872.81-1.552.401-4.748-1.433-6.339-2.103.2.029 3.207.416 2.872-.106-.323-.5-1.358-.827-1.866-.925-.908-.175-1.544.556-2.233.834-1.173.47-2.998.474-4.368.439a4.939 4.939 0 0 0 2.035-.647c-.77-.222-1.184-.766-.846-1.376a9.138 9.138 0 0 0-.822 1.456c-.04-2.238-.964-.117-1.314.356-.524.71-1.266 1.073-2.312 1.02.598-.156 1.993-.887.844-1.698-.252 1.84-2.577 2.823-4.625 2.102 2.042.674.064-3.74-.477-4.613-.225.945-.52 2.02-.878 2.9-.273.67-1.588.28-2.185.644-.32.198-2.174.255-2.05-.022-.453 1.023-1.755-.675-2.457-.364.385.114-2.117.662-2.658.722-1.365.154-1.353.923-2.59 1.368-2.229.798-3.684-1.881-5.843-1.839-.763.014-2.809 2.115-1.342 2.797.964.448 2.421.387 3.213.056.648-.27 2.24-.119 2.62-.514-.204.373-1.84 1.12-1.467 1.7.947 1.465 1.382.638 1.904-.1.686-.97 2.352.285 1.952 1.36-.339.916-2.449.167-1.703 1.734-1.244-.403-1.174.38-.678 1.223.8 1.365 1.872 1.492 3.27 1.863.68.18 1.156 1.044 1.745 1.524.591.48-.849 1.313-.652 1.945-1.208-1.28-1.836-.034-2.462.567.318-.613.632-1.238.767-1.945-.819-.094-.702-.504-1.144-.974-.27-.29-2.434-.962-2.8-.966.402-1.04-3.219-2.564-3.525-2.23-.172.187.971 1.393 1.004 1.823.098 1.255-.034 2.362-1.359 2.673-.34-1.172-.236-1.524-1.635-1.78-2.242-.413-.907 1.14-2.345 1.448-2.258.484-5.509-2.17-4.72-4.36-.29.98-1.726.53-2.523-.073-.518-.395-.972-.974-.929-1.544-.89-.13-2.304.575-1.559-.81-1.054.01-3.34.964-1.916 2.345-1.665-.257-2.857.518-4.679.091-2.144-.5-4.2-1.685-6.34-2.274.716-.78.93-1.51.138-2.67-.118.849.245 2.925-.807 3.175-.984.233-2.88.46-4.005-.02.32-.724 1.192-1.26.832-2.266-1.02.563-1.827 1.732-.555 2.994-3 .392-5.932 1.368-8 3.155.497-.936 1.57-1.548 2.595-1.942-.934-.166-1.747.08-2.524.325.39-.7.803-1.55.256-2.51-.715.157-.644.849-1.214 1.133-1.667.418-.462 2.601.423 2.833-1.085 1.381-2.46 2.293-3.46 3.757-1.368 2.004-5.045 1.635-6.178 3.525l1.547-.484c-1.168.73-2.422 1.386-3.777 1.86.51-.595 1.33-.873 1.765-1.537a9.502 9.502 0 0 0-1.526.565c1.086-.773-1.703-.565-2.245-1.457.29.56.283 1.045-.022 1.457-.372-2.406-2.696 1.411.353 1.294-.783.955-2.259 1.37-3.402-.161.463 1.335-1.136 4.264-1.249 2.508-.27 1.268-2.193-.043-2.289 1.456.74.188 1.283.026 1.63-.485.34 2.505-2.333 2.06-4.076 2.59.915.685 1.502 1.082 1.832 1.599.4.624-.478 1.986-.66 2.459-.489 1.266-2.276 1.346-3.358-.095.552.587.678 1.153.38 1.7.886.19 1.818.372 2.488-.08.007.882-.058 2.363-.857 2.808-.666.371.567 2.26.73 2.857.49 1.793.384 5.506 2.232 6.959a9.32 9.32 0 0 0 .636-.727c.452.858-1.48 1.663-2.059 1.745-1.144.161-2.453-1.826-3.816-1.826-1.115 0-2.54.286-3.712-.323-1.368-.708-3.187-2.333-4.777-2.548-2.755-.374-3.164-2.112-4.169-4.513-.674-1.611-1.513-3-1.818-4.66-.13-.713.035-1.381-.16-2.105-.28-1.044-1.817-1.409-2.533-2.257-1.112-1.319-1.607-2.87-2.9-4.095-1.278-1.21-1.979-2.5-2.684-3.969-.67-1.394-.92-2.819-1.66-4.209-.369-.69-.969-1.212-1.356-1.876-.472-.81-1.728-1.323-2.012-2.055-.528-1.362-2.67-1.805-3.217-3.25-.06-.156-2.827-.498-3.086-.534-2.873-.39-5.74-.488-7.805.916-2.245 1.528-1.646 5.357-4.123 6.84-1.1.661-3.174-.91-4.338-1.546-1.05-.573-2.138-1.052-3.184-1.64-.799-.451-1.773-1.697-2.579-1.96-1.707-.557-2.707-2.85-3.043-4.227-.227-.928.033-1.653-.398-2.607-.383-.85-.915-1.649-1.087-2.526-.324-1.637-1.953-2.251-3.372-3.048-1.985-1.11-3.957-3.522-5.589-5.145-1.355-1.349-2.426-1.084-3.557-2.911-1.276-2.06-4.253-1.425-5.828-1.425-2.537 0-5.064.101-7.652-.043-2.874-.16-2.533 1.195-2.712 3.214-.225 2.559-6.36 1.198-8.657 1.198-4.669 0-9.31.422-14.04.21-2.213-.099-4.682-1.412-6.954-2.214-3.128-1.104-6.278-1.985-9.414-3.046-5.909-1.995-11.819-4.167-17.733-6.358-.01-.826.537-1.341.797-2.025-7.062.215-13.793 1.113-20.625 1.782-.864-1.903-.94-3.683-1.689-5.563-.915-2.293-2.973-3.17-5.075-4.8-2.186-1.672-1.734-.706-3.698-1.296-1.34-.4-.21-3.262-3.488-3.15-2.008.069-3.062-.49-4.876-2.077-1.918-1.675-4.096-1.392-6.065-1.757-1.29-.24-4.684.442-5.3-1.8-.387-1.407.592-2.715-.037-4.159-.603-1.385-2.392-1.147-2.149-2.698.152-.972-1.743-2.149-2.85-2.904-1.094-.747-1.48-1.712-2.014-2.708-.793-1.451-3.58-2.891-3.805-4.197-.353-2.047-.072-2.034.757-3.433.972-1.638-.783-2.015-2.658-2.945-2.785-1.379-1.624-2.68-2.847-4.392-.723-1.013-.612-3.288.601-3.346.27.544-.096 1.085.273 1.618.465.67 1.627 1.205 2.31 1.7-.347-2.195-2.964-4.666-.684-5.826-3.845-2.559-1.108 2.322-2.874 2.004-1.132-.206-3.633-2.837-4.027-1.357.258-.657.08-2.662 1.562-.89-.42-.751-.862-1.524-1.728-2.107-.51-2.2-4.928-4.087-5.802-6.555z" fill="#469CB6" fill-rule="evenodd"/></svg>